<svg width="169" height="170" viewBox="0 0 169 170" fill="none" xmlns="http://www.w3.org/2000/svg"><circle cx="84.5" cy="85" r="84.5" fill="#3444DA" fill-opacity="0.08"></circle><g clip-path="url(#clip0_29151_19840)"><path d="M130.533 39.8495C131.287 36.7442 130.57 33.1226 128.134 31.0801C128.086 34.5567 126.822 37.9042 124.566 40.5304C123.692 41.5401 122.616 42.5711 122.573 43.9114C122.547 44.7453 122.95 45.5463 123.506 46.1639C124.061 46.7815 124.762 47.2437 125.455 47.6989L125.556 47.8801C127.785 45.6095 129.779 42.9548 130.533 39.8495Z" fill="#F0F0F0"></path><path d="M128.084 31.1254C129.018 33.598 129.157 36.305 128.481 38.8618C128.345 39.4149 128.124 39.9428 127.825 40.4263C127.519 40.8877 127.096 41.258 126.601 41.4986C126.143 41.7323 125.648 41.9179 125.255 42.2599C125.056 42.438 124.897 42.6565 124.787 42.9012C124.678 43.1458 124.621 43.411 124.62 43.6793C124.601 44.348 124.821 44.9837 125.058 45.5978C125.321 46.2796 125.604 46.9836 125.543 47.7301C125.536 47.8206 125.676 47.8268 125.683 47.7365C125.789 46.4377 124.915 45.3406 124.776 44.0809C124.712 43.4931 124.822 42.882 125.253 42.4534C125.629 42.0786 126.139 41.8868 126.605 41.6542C127.092 41.4266 127.516 41.0821 127.841 40.6507C128.163 40.1842 128.404 39.6657 128.554 39.1175C128.91 37.8888 129.074 36.611 129.037 35.331C129.004 33.8699 128.723 32.4254 128.208 31.0599C128.176 30.9754 128.052 31.0415 128.084 31.1254Z" fill="white"></path><path d="M128.747 38.0515C129.187 38.1078 129.633 38.0043 130.005 37.7594C130.376 37.5145 130.649 37.1442 130.776 36.7146C130.801 36.6276 130.668 36.5839 130.643 36.671C130.526 37.0712 130.272 37.4162 129.925 37.6435C129.579 37.8708 129.163 37.9656 128.753 37.9107C128.664 37.8989 128.659 38.0397 128.747 38.0515Z" fill="white"></path><path d="M126.849 41.411C126.287 40.6921 126.013 39.7857 126.084 38.8725C126.091 38.782 125.951 38.7757 125.944 38.8661C125.873 39.8166 126.159 40.7593 126.746 41.5061C126.802 41.5772 126.904 41.4818 126.849 41.411Z" fill="white"></path><path d="M128.836 33.9482C128.661 33.9622 128.486 33.9322 128.325 33.8608C128.165 33.7894 128.024 33.6789 127.916 33.5392C127.861 33.4673 127.759 33.5628 127.813 33.6342C127.933 33.788 128.088 33.9099 128.266 33.9892C128.443 34.0684 128.636 34.1027 128.83 34.0889C128.848 34.0892 128.866 34.0824 128.879 34.0699C128.893 34.0574 128.901 34.0402 128.903 34.0217C128.903 34.0031 128.897 33.9849 128.884 33.9711C128.872 33.9573 128.854 33.9491 128.836 33.9482Z" fill="white"></path><path d="M117.6 33.0903C117.633 33.1362 117.666 33.182 117.699 33.229C118.14 33.8475 118.532 34.5013 118.869 35.1838C118.896 35.2362 118.922 35.2897 118.948 35.3427C119.742 36.9958 120.226 38.7836 120.374 40.6151C120.433 41.344 120.436 42.0763 120.384 42.8056C120.313 43.8129 120.156 44.8993 120.411 45.8438C120.437 45.9426 120.468 46.0398 120.505 46.1347L125.329 47.9913C125.342 47.99 125.355 47.9898 125.368 47.9884L125.557 48.0715C125.562 48.034 125.567 47.9951 125.572 47.9577C125.575 47.936 125.578 47.9139 125.581 47.8922C125.582 47.8776 125.584 47.8629 125.587 47.8499C125.587 47.845 125.588 47.8401 125.588 47.8364C125.59 47.8233 125.591 47.8109 125.593 47.799C125.62 47.5814 125.645 47.3633 125.669 47.1446C125.669 47.1435 125.669 47.1435 125.668 47.142C125.865 45.4773 125.866 43.795 125.67 42.1302C125.663 42.0806 125.657 42.0299 125.648 41.9795C125.547 41.2369 125.386 40.504 125.166 39.7879C125.045 39.3962 124.903 39.011 124.743 38.6337C124.328 37.6597 123.763 36.7578 123.07 35.9609C121.688 34.3726 119.819 33.2483 117.757 33.1001C117.704 33.0963 117.653 33.093 117.6 33.0903Z" fill="#F0F0F0"></path><path d="M117.588 33.1564C119.808 34.5626 121.533 36.6396 122.517 39.0921C122.739 39.6163 122.877 40.1724 122.926 40.74C122.957 41.2945 122.84 41.8472 122.588 42.3406C122.362 42.8055 122.077 43.2546 121.967 43.7669C121.915 44.03 121.918 44.3013 121.976 44.5631C122.035 44.8249 122.147 45.0712 122.307 45.2859C122.69 45.8314 123.245 46.2051 123.8 46.5516C124.416 46.9363 125.063 47.326 125.459 47.959C125.507 48.0357 125.622 47.9559 125.574 47.8793C124.884 46.7781 123.533 46.4332 122.671 45.5116C122.269 45.0815 121.993 44.5265 122.081 43.9227C122.158 43.3946 122.451 42.9312 122.684 42.4625C122.937 41.9848 123.07 41.4517 123.072 40.9099C123.051 40.3416 122.935 39.781 122.728 39.2522C122.28 38.0542 121.648 36.9347 120.856 35.9347C119.959 34.7884 118.873 33.8057 117.647 33.0289C117.571 32.9809 117.512 33.1086 117.588 33.1564Z" fill="white"></path><path d="M122.246 38.2835C122.631 38.0609 122.925 37.7072 123.076 37.2858C123.226 36.8643 123.224 36.4025 123.068 35.9828C123.037 35.8979 122.905 35.9437 122.936 36.0287C123.082 36.4192 123.084 36.8494 122.943 37.2416C122.802 37.6338 122.527 37.9621 122.167 38.1673C122.089 38.212 122.168 38.328 122.246 38.2835Z" fill="white"></path><path d="M122.733 42.1201C121.856 41.8878 121.097 41.3302 120.609 40.5583C120.561 40.4817 120.446 40.5615 120.494 40.6379C121.004 41.4402 121.794 42.019 122.708 42.2586C122.795 42.2814 122.82 42.1428 122.733 42.1201Z" fill="white"></path><path d="M119.871 34.953C119.739 35.0705 119.581 35.1533 119.411 35.1939C119.24 35.2344 119.062 35.2316 118.893 35.1855C118.806 35.1616 118.781 35.3003 118.867 35.324C119.054 35.374 119.251 35.377 119.44 35.3326C119.628 35.2881 119.803 35.1977 119.949 35.0692C119.964 35.0583 119.974 35.0421 119.978 35.0239C119.981 35.0057 119.977 34.9869 119.968 34.9713C119.957 34.9559 119.941 34.9454 119.923 34.942C119.905 34.9386 119.886 34.9425 119.871 34.953Z" fill="white"></path><path d="M111.222 103.235C95.0509 103.235 81.8945 89.9494 81.8945 73.6193C81.8945 57.2893 95.0509 44.0038 111.222 44.0038C112.932 44.0036 114.638 44.1529 116.323 44.4501C116.344 44.4537 116.364 44.4615 116.382 44.473C116.4 44.4846 116.415 44.4995 116.428 44.5171C116.44 44.5347 116.448 44.5546 116.453 44.5756C116.458 44.5966 116.458 44.6183 116.455 44.6395C116.451 44.6607 116.443 44.681 116.432 44.6991C116.42 44.7173 116.405 44.733 116.388 44.7453C116.37 44.7577 116.351 44.7664 116.33 44.771C116.309 44.7757 116.288 44.7761 116.267 44.7724C114.601 44.4785 112.913 44.3308 111.222 44.331C95.2296 44.331 82.2186 57.4697 82.2186 73.6193C82.2186 89.769 95.2296 102.908 111.222 102.908C127.215 102.908 140.226 89.769 140.226 73.6193C140.233 66.3198 137.534 59.2821 132.66 53.8916C132.631 53.8595 132.616 53.8172 132.618 53.7741C132.62 53.7309 132.639 53.6903 132.671 53.6611C132.703 53.632 132.744 53.6167 132.787 53.6186C132.83 53.6204 132.87 53.6393 132.899 53.6711C137.828 59.1218 140.557 66.2382 140.55 73.6193C140.55 89.9494 127.394 103.235 111.222 103.235Z" fill="#C7C4E7"></path><path d="M142.314 85.7273L129.994 51.1172L130.306 51.0038L128.04 44.6381L127.728 44.7516L123.945 34.1252C123.804 33.7283 123.587 33.3634 123.306 33.0513C123.025 32.7393 122.686 32.4861 122.308 32.3064C121.93 32.1266 121.521 32.0237 121.104 32.0036C120.687 31.9836 120.27 32.0467 119.876 32.1893L97.6046 40.2736C97.2116 40.4162 96.8502 40.6357 96.5412 40.9193C96.2321 41.203 95.9814 41.5454 95.8034 41.9269C95.6254 42.3084 95.5235 42.7216 95.5036 43.1428C95.4837 43.5641 95.5462 43.9852 95.6874 44.3821L98.3249 51.7914L97.8313 51.9834L99.5149 56.3983L99.9101 56.2446L100.26 57.2266L99.8391 57.3902L101.523 61.805L101.845 61.6798L114.056 95.9842C114.197 96.3816 114.413 96.747 114.694 97.0595C114.975 97.3721 115.314 97.6255 115.692 97.8054C116.07 97.9853 116.48 98.088 116.897 98.1077C117.315 98.1274 117.732 98.0637 118.125 97.9202L140.396 89.836C141.19 89.547 141.837 88.9522 142.196 88.1819C142.556 87.4117 142.598 86.5289 142.314 85.7273Z" fill="#3C3780"></path><path d="M116.952 96.7795C116.639 96.7788 116.333 96.6806 116.077 96.4983C115.82 96.3159 115.626 96.0582 115.519 95.7603L96.957 43.6135C96.8203 43.2295 96.8403 42.8063 97.0126 42.4371C97.1848 42.0679 97.4953 41.7829 97.8756 41.6449L102.614 39.9248L102.607 40.0922C102.595 40.3828 102.654 40.672 102.778 40.9343C102.903 41.1966 103.09 41.4239 103.322 41.5962C103.554 41.7685 103.824 41.8805 104.109 41.9224C104.394 41.9643 104.685 41.9347 104.956 41.8364L115.473 38.019C115.727 37.9016 115.95 37.7254 116.124 37.5048C116.298 37.2843 116.418 37.0254 116.474 36.7493C116.53 36.4778 116.522 36.1967 116.45 35.9291C116.377 35.6615 116.244 35.4149 116.059 35.2095L115.948 35.0849L120.843 33.308C121.223 33.1705 121.642 33.191 122.008 33.3649C122.373 33.5388 122.655 33.852 122.793 34.2358L140.503 83.9881C140.864 85.0073 140.81 86.1297 140.353 87.109C139.896 88.0883 139.074 88.8446 138.065 89.2119L117.469 96.688C117.303 96.7484 117.129 96.7793 116.952 96.7795Z" fill="white"></path><path d="M130.065 62.5558L109.205 70.1275C109.14 70.1513 109.071 70.1619 109.002 70.1587C108.933 70.1555 108.865 70.1386 108.802 70.1088C108.739 70.0791 108.683 70.0371 108.636 69.9853C108.59 69.9336 108.554 69.8731 108.53 69.8072C108.507 69.7414 108.496 69.6715 108.5 69.6016C108.503 69.5317 108.52 69.4632 108.55 69.3999C108.579 69.3366 108.621 69.2799 108.672 69.2329C108.724 69.1859 108.784 69.1497 108.849 69.1261L129.708 61.5545C129.84 61.5072 129.984 61.5144 130.111 61.5746C130.237 61.6348 130.334 61.7431 130.381 61.8756C130.428 62.0082 130.422 62.1543 130.362 62.2818C130.303 62.4093 130.196 62.5078 130.065 62.5558Z" fill="#E6E6E6"></path><path d="M123.87 67.3565L117.009 69.8471C116.944 69.8709 116.875 69.8814 116.805 69.8782C116.736 69.875 116.668 69.858 116.606 69.8282C116.543 69.7985 116.487 69.7565 116.44 69.7048C116.393 69.653 116.357 69.5925 116.334 69.5267C116.31 69.4609 116.3 69.391 116.303 69.3211C116.307 69.2512 116.324 69.1827 116.353 69.1194C116.383 69.0562 116.424 68.9994 116.476 68.9525C116.527 68.9055 116.587 68.8692 116.652 68.8456L123.514 66.3551C123.645 66.3074 123.79 66.3143 123.917 66.3745C124.043 66.4346 124.14 66.543 124.188 66.6758C124.235 66.8086 124.228 66.9549 124.169 67.0826C124.109 67.2103 124.002 67.3088 123.87 67.3565Z" fill="#E6E6E6"></path><path d="M125.502 71.9411L118.641 74.4317C118.576 74.4553 118.506 74.4658 118.437 74.4624C118.368 74.4591 118.3 74.4421 118.238 74.4123C118.175 74.3825 118.119 74.3406 118.073 74.2888C118.026 74.2371 117.99 74.1767 117.967 74.1109C117.943 74.0452 117.933 73.9754 117.936 73.9056C117.939 73.8358 117.956 73.7674 117.986 73.7042C118.015 73.641 118.057 73.5842 118.108 73.5372C118.159 73.4902 118.219 73.4539 118.284 73.4302L125.146 70.9397C125.277 70.892 125.422 70.8989 125.548 70.9591C125.675 71.0192 125.772 71.1276 125.82 71.2604C125.867 71.3932 125.86 71.5395 125.8 71.6672C125.741 71.7949 125.634 71.8934 125.502 71.9411Z" fill="#E6E6E6"></path><path d="M126.338 74.2895L119.477 76.78C119.412 76.8039 119.343 76.8145 119.273 76.8113C119.204 76.8081 119.136 76.7912 119.073 76.7614C119.011 76.7317 118.954 76.6897 118.908 76.638C118.861 76.5862 118.825 76.5257 118.802 76.4598C118.778 76.3939 118.768 76.3241 118.771 76.2541C118.774 76.1842 118.791 76.1157 118.821 76.0524C118.851 75.9891 118.892 75.9324 118.944 75.8854C118.995 75.8385 119.055 75.8022 119.12 75.7787L125.982 73.2881C126.047 73.2643 126.116 73.2537 126.185 73.2569C126.255 73.2601 126.322 73.2771 126.385 73.3068C126.448 73.3366 126.504 73.3785 126.551 73.4303C126.597 73.482 126.633 73.5426 126.657 73.6084C126.68 73.6743 126.691 73.7441 126.687 73.814C126.684 73.8839 126.667 73.9525 126.637 74.0157C126.608 74.079 126.566 74.1357 126.515 74.1827C126.463 74.2297 126.403 74.266 126.338 74.2895Z" fill="#E6E6E6"></path><path d="M128.522 68.2199L113.965 73.504C113.9 73.5278 113.831 73.5384 113.761 73.5352C113.692 73.532 113.624 73.515 113.562 73.4853C113.499 73.4555 113.443 73.4136 113.396 73.3618C113.349 73.3101 113.313 73.2496 113.29 73.1837C113.266 73.1179 113.256 73.048 113.259 72.9781C113.263 72.9082 113.28 72.8397 113.309 72.7764C113.339 72.7131 113.381 72.6564 113.432 72.6094C113.483 72.5624 113.543 72.5261 113.609 72.5026L128.166 67.2185C128.231 67.1947 128.3 67.1841 128.37 67.1873C128.439 67.1905 128.507 67.2075 128.569 67.2373C128.632 67.267 128.688 67.309 128.735 67.3607C128.782 67.4125 128.818 67.473 128.841 67.5388C128.865 67.6047 128.875 67.6746 128.872 67.7445C128.868 67.8143 128.851 67.8829 128.822 67.9462C128.792 68.0094 128.75 68.0662 128.699 68.1131C128.648 68.1601 128.588 68.1964 128.522 68.2199Z" fill="#E6E6E6"></path><path d="M98.3215 64.8563L96.512 65.5131C96.3496 65.5719 96.1708 65.5632 96.0148 65.4889C95.8587 65.4146 95.7383 65.2807 95.68 65.1168C95.6216 64.9529 95.6301 64.7723 95.7036 64.6147C95.777 64.457 95.9095 64.3353 96.0718 64.2763L97.8812 63.6195C98.0436 63.5607 98.2225 63.5694 98.3785 63.6437C98.5345 63.718 98.6549 63.8518 98.7133 64.0158C98.7716 64.1797 98.7631 64.3603 98.6897 64.5179C98.6162 64.6755 98.4838 64.7972 98.3215 64.8563Z" fill="#3444DA"></path><path d="M84.0632 35.8794C84.2021 35.8794 84.3148 35.7657 84.3148 35.6253C84.3148 35.485 84.2021 35.3712 84.0632 35.3712C83.9242 35.3712 83.8115 35.485 83.8115 35.6253C83.8115 35.7657 83.9242 35.8794 84.0632 35.8794Z" fill="white"></path><path d="M55.1241 49.9166C57.9444 46.5642 62.5204 44.4515 66.7391 45.5469C62.9394 48.4034 60.2628 52.525 59.1828 57.1826C58.7728 58.9803 58.502 61.0229 57.0566 62.1512C56.1573 62.8532 54.948 63.0451 53.8183 62.9177C52.6886 62.7903 51.6133 62.374 50.5525 61.9614L50.2705 61.993C50.98 57.653 52.3038 53.2689 55.1241 49.9166Z" fill="#F0F0F0"></path><path d="M66.7283 45.6387C63.2454 46.5805 60.145 48.6065 57.8674 51.429C57.3664 52.0278 56.962 52.7027 56.6691 53.4287C56.4064 54.1452 56.3386 54.9196 56.4725 55.6716C56.5835 56.3753 56.7777 57.0821 56.7173 57.8008C56.681 58.1682 56.5682 58.5237 56.3863 58.844C56.2044 59.1643 55.9575 59.4421 55.6618 59.6593C54.9389 60.2198 54.0597 60.4845 53.191 60.7133C52.2265 60.9673 51.2207 61.2157 50.4456 61.8859C50.3516 61.9671 50.2323 61.8152 50.3261 61.7341C51.6748 60.568 53.5902 60.6669 55.0926 59.8072C55.7937 59.4061 56.3793 58.7892 56.5054 57.9591C56.6157 57.2333 56.4161 56.5042 56.2977 55.7927C56.1563 55.0611 56.1945 54.3056 56.409 53.5923C56.6643 52.8536 57.0423 52.1642 57.5267 51.5536C58.5956 50.1612 59.8746 48.9473 61.3169 47.9561C62.9568 46.8157 64.7777 45.967 66.701 45.4467C66.8201 45.4146 66.8465 45.6067 66.7283 45.6387Z" fill="white"></path><path d="M58.5478 50.4766C58.1307 50.0264 57.8857 49.4412 57.8565 48.8254C57.8272 48.2097 58.0157 47.6035 58.3882 47.1151C58.464 47.0165 58.6192 47.1307 58.5434 47.2294C58.1956 47.6835 58.0201 48.2482 58.0485 48.8216C58.0769 49.3949 58.3073 49.9391 58.6981 50.356C58.7829 50.4467 58.6321 50.5667 58.5478 50.4766Z" fill="white"></path><path d="M56.3698 55.3222C57.6166 55.3754 58.8375 54.9521 59.789 54.1367C59.8832 54.0558 60.0025 54.2077 59.9084 54.2885C58.9167 55.1351 57.6453 55.5731 56.3479 55.5148C56.2243 55.5092 56.2468 55.3166 56.3698 55.3222Z" fill="white"></path><path d="M63.0059 47.0679C63.1313 47.2761 63.3059 47.4495 63.5142 47.5726C63.7224 47.6957 63.9576 47.7647 64.1987 47.7734C64.3224 47.7774 64.2997 47.97 64.1769 47.966C63.9105 47.9552 63.6508 47.8787 63.4205 47.7432C63.1902 47.6076 62.9962 47.4172 62.8555 47.1885C62.8405 47.1681 62.8337 47.1426 62.8366 47.1174C62.8395 47.0921 62.8518 47.0688 62.871 47.0523C62.891 47.0365 62.9163 47.0292 62.9416 47.0321C62.9668 47.035 62.9899 47.0479 63.0059 47.0679Z" fill="white"></path><path d="M73.0118 59.0258C72.9345 59.0255 72.8572 59.0252 72.7789 59.0262C71.7398 59.0275 70.7025 59.114 69.6773 59.2848C69.5978 59.2968 69.5175 59.3101 69.4385 59.3243C66.9728 59.7626 64.6091 60.6593 62.4676 61.9689C61.6159 62.4908 60.8048 63.0774 60.0413 63.7236C58.9868 64.616 57.9138 65.6684 56.6658 66.143C56.5361 66.194 56.4034 66.2369 56.2685 66.2713L50.33 62.3381C50.321 62.3223 50.311 62.3079 50.3018 62.2921L50.0576 62.146C50.0947 62.1099 50.1339 62.0732 50.171 62.0371C50.1924 62.0161 50.2151 61.9959 50.2366 61.9749C50.2513 61.9611 50.266 61.9474 50.2785 61.9342C50.2834 61.9296 50.2883 61.925 50.2923 61.9218C50.3048 61.9086 50.3178 61.8976 50.3294 61.8857C50.5481 61.6803 50.7686 61.4761 50.9909 61.273C50.9918 61.2717 50.9918 61.2717 50.994 61.2712C52.6916 59.7285 54.5318 58.3154 56.5258 57.2293C56.5858 57.1966 56.6466 57.1626 56.7093 57.1317C57.6109 56.6472 58.5501 56.2378 59.5176 55.9078C60.048 55.7288 60.587 55.5771 61.1326 55.4531C62.5428 55.1356 63.9938 55.044 65.4322 55.1818C68.2997 55.4569 71.0482 56.655 72.8739 58.8563C72.9206 58.9126 72.966 58.9681 73.0118 59.0258Z" fill="#F0F0F0"></path><path d="M72.9497 59.0931C69.6073 57.7276 65.9239 57.4603 62.4225 58.3292C61.6654 58.5027 60.9402 58.7957 60.2735 59.1973C59.6365 59.6096 59.1206 60.1868 58.7792 60.8686C58.4482 61.4979 58.1819 62.1803 57.7052 62.7174C57.4572 62.9887 57.1551 63.204 56.8189 63.3491C56.4827 63.4942 56.1199 63.566 55.7543 63.5596C54.843 63.5676 53.9832 63.2445 53.1532 62.899C52.2316 62.5154 51.2805 62.1023 50.2619 62.1661C50.1385 62.1738 50.1339 61.98 50.2571 61.9723C52.0291 61.8612 53.4995 63.1047 55.2117 63.3317C56.0106 63.4376 56.846 63.3011 57.4416 62.715C57.9625 62.2026 58.2377 61.4991 58.5674 60.859C58.8907 60.1889 59.3717 59.6089 59.9682 59.1698C60.6125 58.7352 61.3253 58.4146 62.0762 58.2215C63.7597 57.7596 65.5047 57.568 67.2473 57.6535C69.2365 57.74 71.1965 58.1694 73.0423 58.9233C73.1566 58.97 73.0632 59.1395 72.9497 59.0931Z" fill="white"></path><path d="M63.533 57.9823C63.4684 57.3693 63.6217 56.7531 63.9655 56.2437C64.3093 55.7342 64.8212 55.3648 65.4098 55.2013C65.529 55.1687 65.5849 55.3542 65.4655 55.3869C64.9171 55.5381 64.4403 55.8823 64.1211 56.3573C63.8019 56.8324 63.6614 57.407 63.7249 57.9774C63.7386 58.1014 63.5466 58.1056 63.533 57.9823Z" fill="white"></path><path d="M58.9054 60.5272C59.8692 61.3277 61.0964 61.7319 62.3423 61.6593C62.4657 61.6521 62.4704 61.8459 62.3472 61.8532C61.0505 61.9263 59.7743 61.5029 58.7732 60.6677C58.6778 60.588 58.8106 60.4479 58.9054 60.5272Z" fill="white"></path><path d="M69.1253 57.9712C69.1014 58.2136 69.1375 58.4583 69.2303 58.6832C69.3231 58.9081 69.4698 59.1062 69.6572 59.2597C69.7535 59.3381 69.6206 59.4781 69.5249 59.4002C69.3187 59.2296 69.1569 59.0106 69.0538 58.7624C68.9507 58.5141 68.9094 58.2442 68.9334 57.9761C68.9336 57.9506 68.9433 57.9262 68.9607 57.9077C68.9781 57.8893 69.0018 57.8782 69.0269 57.8767C69.0524 57.8762 69.077 57.8858 69.0954 57.9035C69.1138 57.9212 69.1246 57.9455 69.1253 57.9712Z" fill="white"></path><path d="M139.764 114.349C142.839 115.111 146.426 114.387 148.448 111.927C145.005 111.879 141.69 110.603 139.09 108.324C138.09 107.442 137.069 106.355 135.742 106.312C134.916 106.286 134.123 106.693 133.511 107.254C132.899 107.815 132.442 108.522 131.991 109.222L131.812 109.324C134.06 111.575 136.689 113.588 139.764 114.349Z" fill="#F0F0F0"></path><path d="M148.403 111.877C145.955 112.821 143.274 112.961 140.742 112.278C140.194 112.141 139.672 111.918 139.193 111.616C138.736 111.307 138.369 110.88 138.131 110.38C137.9 109.917 137.716 109.418 137.377 109.02C137.201 108.82 136.984 108.659 136.742 108.548C136.5 108.438 136.237 108.38 135.971 108.38C135.309 108.361 134.68 108.583 134.072 108.822C133.396 109.087 132.699 109.373 131.96 109.312C131.87 109.304 131.864 109.445 131.954 109.453C133.24 109.559 134.326 108.677 135.574 108.537C136.156 108.472 136.761 108.584 137.185 109.018C137.557 109.398 137.747 109.913 137.977 110.383C138.202 110.875 138.543 111.304 138.971 111.632C139.433 111.957 139.946 112.2 140.489 112.352C141.706 112.712 142.971 112.877 144.239 112.84C145.686 112.806 147.116 112.523 148.468 112.002C148.552 111.97 148.487 111.845 148.403 111.877Z" fill="white"></path><path d="M141.544 112.547C141.488 112.991 141.591 113.441 141.833 113.817C142.076 114.192 142.443 114.468 142.868 114.595C142.954 114.621 142.998 114.487 142.911 114.461C142.515 114.343 142.173 114.086 141.948 113.736C141.723 113.386 141.629 112.967 141.684 112.553C141.695 112.463 141.556 112.457 141.544 112.547Z" fill="white"></path><path d="M138.218 110.63C138.93 110.062 139.827 109.786 140.731 109.857C140.821 109.864 140.827 109.724 140.738 109.716C139.797 109.644 138.863 109.933 138.124 110.526C138.053 110.582 138.148 110.686 138.218 110.63Z" fill="white"></path><path d="M145.608 112.637C145.594 112.46 145.624 112.283 145.695 112.121C145.765 111.959 145.875 111.817 146.013 111.708C146.084 111.653 145.99 111.549 145.919 111.604C145.767 111.725 145.646 111.882 145.568 112.061C145.489 112.24 145.455 112.435 145.469 112.63C145.469 112.649 145.475 112.667 145.488 112.681C145.5 112.694 145.517 112.703 145.535 112.704C145.554 112.705 145.572 112.698 145.585 112.686C145.599 112.673 145.607 112.655 145.608 112.637Z" fill="white"></path><path d="M146.458 101.29C146.412 101.323 146.367 101.357 146.32 101.39C145.708 101.836 145.06 102.231 144.384 102.572C144.333 102.599 144.28 102.626 144.227 102.651C142.59 103.454 140.82 103.942 139.006 104.092C138.284 104.151 137.559 104.154 136.837 104.102C135.839 104.03 134.763 103.872 133.828 104.129C133.73 104.155 133.634 104.187 133.54 104.224L131.701 109.095C131.703 109.108 131.703 109.121 131.704 109.134L131.622 109.325C131.659 109.331 131.698 109.336 131.735 109.341C131.756 109.344 131.778 109.346 131.8 109.349C131.814 109.351 131.829 109.353 131.842 109.355C131.846 109.356 131.851 109.356 131.855 109.357C131.868 109.359 131.88 109.36 131.892 109.362C132.107 109.389 132.323 109.414 132.54 109.438C132.541 109.439 132.541 109.439 132.543 109.438C134.191 109.637 135.857 109.637 137.506 109.439C137.555 109.433 137.605 109.426 137.655 109.418C138.39 109.315 139.116 109.152 139.825 108.931C140.213 108.808 140.594 108.665 140.968 108.504C141.933 108.084 142.826 107.514 143.615 106.814C145.188 105.419 146.301 103.531 146.448 101.449C146.452 101.396 146.455 101.344 146.458 101.29Z" fill="#F0F0F0"></path><path d="M146.392 101.277C144.999 103.519 142.942 105.261 140.514 106.255C139.995 106.479 139.444 106.618 138.882 106.668C138.333 106.699 137.785 106.582 137.297 106.327C136.836 106.098 136.392 105.811 135.884 105.7C135.624 105.647 135.355 105.65 135.096 105.709C134.837 105.768 134.593 105.882 134.38 106.043C133.84 106.43 133.47 106.99 133.127 107.551C132.746 108.173 132.36 108.826 131.733 109.226C131.657 109.275 131.736 109.391 131.812 109.342C132.902 108.646 133.244 107.281 134.157 106.411C134.582 106.004 135.132 105.726 135.73 105.815C136.253 105.892 136.712 106.188 137.176 106.424C137.649 106.679 138.177 106.814 138.714 106.816C139.276 106.795 139.832 106.677 140.355 106.468C141.542 106.016 142.65 105.378 143.64 104.578C144.776 103.671 145.749 102.575 146.518 101.338C146.566 101.261 146.439 101.201 146.392 101.277Z" fill="white"></path><path d="M141.315 105.982C141.535 106.37 141.885 106.667 142.303 106.82C142.72 106.972 143.177 106.969 143.593 106.812C143.677 106.78 143.632 106.647 143.548 106.679C143.161 106.826 142.735 106.828 142.346 106.686C141.958 106.543 141.633 106.265 141.43 105.902C141.385 105.823 141.271 105.903 141.315 105.982Z" fill="white"></path><path d="M137.516 106.474C137.746 105.587 138.298 104.822 139.062 104.328C139.138 104.28 139.059 104.163 138.983 104.212C138.189 104.727 137.616 105.525 137.378 106.448C137.356 106.536 137.493 106.561 137.516 106.474Z" fill="white"></path><path d="M144.613 103.583C144.497 103.45 144.415 103.291 144.374 103.118C144.334 102.946 144.337 102.766 144.383 102.595C144.406 102.508 144.269 102.482 144.245 102.569C144.196 102.759 144.193 102.957 144.237 103.148C144.281 103.338 144.371 103.515 144.498 103.663C144.509 103.678 144.525 103.688 144.543 103.691C144.561 103.695 144.579 103.691 144.595 103.681C144.61 103.67 144.62 103.654 144.624 103.636C144.627 103.617 144.623 103.598 144.613 103.583Z" fill="white"></path><path d="M136.26 72.8502C136.399 72.8502 136.512 72.7365 136.512 72.5961C136.512 72.4558 136.399 72.342 136.26 72.342C136.121 72.342 136.009 72.4558 136.009 72.5961C136.009 72.7365 136.121 72.8502 136.26 72.8502Z" fill="white"></path><path d="M34.5684 108.965H113.507V62.8155C113.507 62.4698 113.371 62.1383 113.128 61.8938C112.886 61.6493 112.558 61.5117 112.216 61.5114H35.8599C35.5175 61.5117 35.1892 61.6493 34.9471 61.8938C34.705 62.1383 34.5688 62.4698 34.5684 62.8155V108.965Z" fill="#C2BEEF"></path><path d="M111.069 63.3152H37.0078V105.773H111.069V63.3152Z" fill="white"></path><path d="M34.5 107.716V113.411C34.5 113.647 34.546 113.881 34.6355 114.099C34.725 114.317 34.8561 114.515 35.0214 114.682C35.1867 114.849 35.383 114.981 35.599 115.072C35.815 115.162 36.0465 115.209 36.2803 115.209H65.416V126.448H65.0289C64.9986 126.448 64.9685 126.454 64.9404 126.465C64.9124 126.477 64.8869 126.494 64.8654 126.516C64.8439 126.538 64.8269 126.563 64.8153 126.592C64.8036 126.62 64.7977 126.65 64.7977 126.681V127.463C64.7977 127.493 64.8036 127.524 64.8153 127.552C64.8269 127.58 64.8439 127.606 64.8654 127.628C64.8869 127.65 64.9124 127.667 64.9404 127.679C64.9685 127.69 64.9986 127.696 65.0289 127.696H83.116C83.1463 127.696 83.1764 127.69 83.2045 127.679C83.2325 127.667 83.258 127.65 83.2795 127.628C83.301 127.606 83.318 127.58 83.3296 127.552C83.3413 127.524 83.3472 127.493 83.3472 127.463V126.681C83.3472 126.65 83.3413 126.62 83.3296 126.592C83.318 126.563 83.301 126.538 83.2795 126.516C83.258 126.494 83.2325 126.477 83.2045 126.465C83.1764 126.454 83.1463 126.448 83.116 126.448H82.7289V115.209H111.865C112.098 115.209 112.33 115.162 112.546 115.072C112.762 114.981 112.958 114.849 113.123 114.682C113.289 114.515 113.42 114.317 113.509 114.099C113.599 113.881 113.645 113.647 113.645 113.411V107.716L34.5 107.716Z" fill="#3C3780"></path><path d="M99.7675 101.055H95.5788C95.2028 101.055 94.8422 100.904 94.5763 100.636C94.3105 100.368 94.1611 100.003 94.1611 99.6238C94.1611 99.2441 94.3105 98.88 94.5763 98.6115C94.8422 98.3431 95.2028 98.1923 95.5788 98.1923H99.7675C100.144 98.1923 100.504 98.3431 100.77 98.6115C101.036 98.88 101.185 99.2441 101.185 99.6238C101.185 100.003 101.036 100.368 100.77 100.636C100.504 100.904 100.144 101.055 99.7675 101.055Z" fill="#3444DA"></path><path d="M139.576 128H34.6933C34.6423 128 34.5933 127.979 34.5573 127.943C34.5212 127.906 34.501 127.857 34.501 127.805C34.501 127.754 34.5212 127.704 34.5573 127.668C34.5933 127.631 34.6423 127.611 34.6933 127.61H139.576C139.627 127.611 139.676 127.631 139.712 127.668C139.748 127.704 139.768 127.754 139.768 127.805C139.768 127.857 139.748 127.906 139.712 127.943C139.676 127.979 139.627 128 139.576 128Z" fill="#C2BEEF"></path><path d="M74.0033 62.4133C74.1551 62.4133 74.2781 62.289 74.2781 62.1358C74.2781 61.9825 74.1551 61.8583 74.0033 61.8583C73.8516 61.8583 73.7285 61.9825 73.7285 62.1358C73.7285 62.289 73.8516 62.4133 74.0033 62.4133Z" fill="white"></path><path d="M74.5 95C80.0228 95 84.5 90.5228 84.5 85C84.5 79.4772 80.0228 75 74.5 75C68.9772 75 64.5 79.4772 64.5 85C64.5 90.5228 68.9772 95 74.5 95Z" fill="#009C20"></path><path d="M73.4521 89C73.3194 89 73.1884 88.9691 73.0697 88.9097C72.951 88.8503 72.8477 88.7641 72.7681 88.6579L70.671 85.8614C70.6036 85.7716 70.5546 85.6694 70.5267 85.5606C70.4989 85.4518 70.4927 85.3386 70.5086 85.2274C70.5245 85.1163 70.5621 85.0093 70.6193 84.9127C70.6765 84.8161 70.7522 84.7316 70.842 84.6643C70.9319 84.5969 71.0341 84.5479 71.1429 84.52C71.2516 84.4921 71.3648 84.486 71.476 84.5019C71.5872 84.5177 71.6941 84.5554 71.7907 84.6126C71.8873 84.6698 71.9717 84.7455 72.0391 84.8353L73.4111 86.6647L76.9349 81.3786C77.0611 81.1907 77.2565 81.0604 77.4785 81.0163C77.7005 80.9723 77.9309 81.0181 78.1192 81.1436C78.3075 81.2692 78.4384 81.4643 78.4831 81.6861C78.5279 81.908 78.4828 82.1386 78.3579 82.3273L74.1636 88.6192C74.0877 88.733 73.9857 88.8269 73.866 88.8931C73.7464 88.9593 73.6126 88.9959 73.4759 88.9997C73.468 88.9999 73.46 89 73.4521 89Z" fill="white"></path></g><path d="M114.822 60.912C118.624 60.912 121.706 57.8298 121.706 54.0278C121.706 50.2257 118.624 47.1436 114.822 47.1436C111.02 47.1436 107.938 50.2257 107.938 54.0278C107.938 57.8298 111.02 60.912 114.822 60.912Z" fill="#C2040F"></path><path d="M116.234 51.9625L114.13 57.0885" stroke="white" stroke-width="0.935866" stroke-linecap="round" stroke-linejoin="round"></path><path d="M112.619 53.4738L117.745 55.5773" stroke="white" stroke-width="0.935866" stroke-linecap="round" stroke-linejoin="round"></path><defs><clipPath id="clip0_29151_19840"><rect width="118" height="98" fill="white" transform="translate(34.5 30)"></rect></clipPath></defs></svg>